<svg width="260" height="116" viewBox="0 0 260 116" fill="none" xmlns="http://www.w3.org/2000/svg">
<path d="M219.848 76.1694C211.893 82.8332 204.802 89.0667 199.036 94.5254C187.475 105.356 181.043 113.145 182.479 115.019C183.915 116.892 192.901 113.051 206.097 105.274C212.667 101.371 220.562 96.117 229.092 90.1738L242.32 80.756L249.237 75.5872C250.995 74.3109 252.618 72.8573 254.08 71.2494C256.113 69.0394 257.614 66.3936 258.468 63.5144C259.256 60.6526 259.36 57.6456 258.771 54.7363C258.491 53.3655 258.079 52.025 257.54 50.7334C257.143 49.7872 256.693 48.8638 256.193 47.9678C254.629 45.3065 252.913 42.7377 251.054 40.274C247.835 35.9323 244.363 31.784 240.656 27.8506C234.495 21.232 227.59 15.3477 220.078 10.3149C207.256 1.85933 197.905 -0.459553 196.635 1.78329C195.364 4.02614 201.887 10.5424 211.684 21.0075C216.309 26.1389 222.198 32.6253 227.97 40.0612L230.699 43.6638C222.497 42.6422 211.705 41.7599 197.372 41.3321C177.518 40.8065 157.649 41.31 137.847 42.8406C115.966 44.4788 94.1888 47.2946 72.6106 51.2758C31.3807 58.8028 -0.529611 69.8576 0.156577 72.5068C0.842759 75.156 33.1736 70.5781 73.7339 67.3961C114.201 64.0878 154.824 63.1107 195.404 64.4699C212.327 65.0461 224.271 65.4987 232.877 65.5712L232.703 65.9163L220.28 76.314" fill="white"/>
</svg>
