<?xml version="1.0" encoding="UTF-8"?>
<svg id="Warstwa_1" xmlns="http://www.w3.org/2000/svg" version="1.1" viewBox="0 0 3600 3600">
  <!-- Generator: Adobe Illustrator 29.5.1, SVG Export Plug-In . SVG Version: 2.1.0 Build 141)  -->
  <defs>
    <style>
      .st0 {
        fill: #f3981a;
      }

      .st1 {
        fill: #02ad94;
      }

      .st2 {
        display: none;
        fill: none;
        stroke: #000;
        stroke-miterlimit: 10;
        stroke-width: 2px;
      }

      .st2, .st3 {
        isolation: isolate;
        opacity: .2;
      }

      .st4 {
        fill: #c8ac91;
      }

      .st5 {
        fill: #e5213d;
      }

      .st3 {
        fill: #009640;
      }

      .st6 {
        fill: #e84165;
      }

      .st7 {
        fill: #fac273;
      }

      .st8 {
        fill: #ffd861;
      }

      .st9 {
        fill: #028778;
      }

      .st10 {
        fill: #decbbd;
      }
    </style>
  </defs>
  <circle class="st3" cx="1800" cy="1800" r="1800"/>
  <circle class="st2" cx="1800" cy="1800" r="1506.2"/>
  <g>
    <path class="st1" d="M2112.97,1786.75v719.05c0,64.09-52.14,116.22-116.22,116.22h-393.5c-64.09,0-116.22-52.14-116.22-116.22v-719.05c0-93.28,34.89-182.35,98.24-250.83l86.86-93.95v-463.99h255.8v464.12l86.8,93.81c63.34,68.48,98.24,157.56,98.24,250.83h0Z"/>
    <path class="st9" d="M2112.97,1786.75v719.05c0,64.09-52.14,116.22-116.22,116.22h-196.75V977.98h127.93v464.12l86.8,93.81c63.34,68.48,98.24,157.56,98.24,250.83h0Z"/>
    <rect class="st7" x="1487.03" y="1826.21" width="390.14" height="556.82"/>
    <rect class="st0" x="1800" y="1826.21" width="77.16" height="556.82"/>
    <rect class="st10" x="1487.03" y="1826.21" width="390.14" height="150.75"/>
    <rect class="st4" x="1800" y="1826.21" width="77.16" height="150.75"/>
    <rect class="st6" x="1649.02" y="977.98" width="301.97" height="100.65"/>
    <rect class="st5" x="1800" y="977.98" width="150.98" height="100.65"/>
  </g>
  <path class="st8" d="M1961.33,451.04l-16.32-95.15,118.3-115.32c5.02-4.89,6.83-12.22,4.66-18.88-2.16-6.66-7.93-11.52-14.86-12.53l-163.5-23.75-73.12-148.15c-3.1-6.28-9.5-10.26-16.51-10.26s-13.41,3.98-16.51,10.26l-73.12,148.15-163.49,23.75c-6.93,1-12.7,5.86-14.86,12.53s-.36,13.98,4.66,18.88l118.3,115.32-27.93,162.83c-1.18,6.91,1.66,13.89,7.33,18.01,5.67,4.12,13.18,4.66,19.39,1.4l146.22-76.87,146.22,76.87c2.7,1.41,5.64,2.11,8.57,2.11,3.81,0,7.62-1.19,10.82-3.52,5.68-4.12,8.51-11.1,7.33-18.01l-11.62-67.67"/>
  <path class="st8" d="M1268.86,707.66l-16.32-95.15,118.3-115.32c5.02-4.89,6.83-12.22,4.66-18.88-2.16-6.66-7.93-11.52-14.86-12.53l-163.5-23.75-73.12-148.15c-3.1-6.28-9.5-10.26-16.51-10.26s-13.41,3.98-16.51,10.26l-73.12,148.15-163.49,23.75c-6.93,1-12.7,5.86-14.86,12.53s-.36,13.98,4.66,18.88l118.3,115.32-27.93,162.83c-1.18,6.91,1.66,13.89,7.33,18.01s13.18,4.66,19.39,1.4l146.22-76.87,146.22,76.87c2.7,1.41,5.64,2.11,8.57,2.11,3.81,0,7.62-1.19,10.82-3.52,5.68-4.12,8.51-11.1,7.33-18.01l-11.62-67.67"/>
  <path class="st8" d="M1961.33,3448.3l-16.32-95.15,118.3-115.32c5.02-4.89,6.83-12.22,4.66-18.88-2.16-6.66-7.93-11.52-14.86-12.53l-163.5-23.75-73.12-148.15c-3.1-6.28-9.5-10.26-16.51-10.26s-13.41,3.98-16.51,10.26l-73.12,148.15-163.49,23.75c-6.93,1-12.7,5.86-14.86,12.53s-.36,13.98,4.66,18.88l118.3,115.32-27.93,162.83c-1.18,6.91,1.66,13.89,7.33,18.01s13.18,4.66,19.39,1.4l146.22-76.87,146.22,76.87c2.7,1.41,5.64,2.11,8.57,2.11,3.81,0,7.62-1.19,10.82-3.52,5.68-4.12,8.51-11.1,7.33-18.01l-11.62-67.67"/>
  <path class="st8" d="M492.45,1993.62l-16.32-95.15,118.3-115.32c5.02-4.89,6.83-12.22,4.66-18.88s-7.93-11.52-14.86-12.53l-163.5-23.75-73.12-148.15c-3.1-6.28-9.5-10.26-16.51-10.26s-13.41,3.98-16.51,10.26l-73.12,148.15-163.49,23.75c-6.93,1-12.7,5.86-14.86,12.53s-.36,13.98,4.66,18.88l118.3,115.32-27.93,162.83c-1.18,6.91,1.66,13.89,7.33,18.01,5.67,4.12,13.18,4.66,19.39,1.4l146.22-76.87,146.22,76.87c2.7,1.41,5.64,2.11,8.57,2.11,3.81,0,7.62-1.19,10.82-3.52,5.68-4.12,8.51-11.1,7.33-18.01l-11.62-67.67"/>
  <path class="st8" d="M761.34,2699.04l-16.32-95.15,118.3-115.32c5.02-4.89,6.83-12.22,4.66-18.88s-7.93-11.52-14.86-12.53l-163.5-23.75-73.12-148.15c-3.1-6.28-9.5-10.26-16.51-10.26s-13.41,3.98-16.51,10.26l-73.12,148.15-163.49,23.75c-6.93,1-12.7,5.86-14.86,12.53s-.36,13.98,4.66,18.88l118.3,115.32-27.93,162.83c-1.18,6.91,1.66,13.89,7.33,18.01s13.18,4.66,19.39,1.4l146.22-76.87,146.22,76.87c2.7,1.41,5.64,2.11,8.57,2.11,3.81,0,7.62-1.19,10.82-3.52,5.68-4.12,8.51-11.1,7.33-18.01l-11.62-67.67"/>
  <path class="st8" d="M1268.86,3212.18l-16.32-95.15,118.3-115.32c5.02-4.89,6.83-12.22,4.66-18.88s-7.93-11.52-14.86-12.53l-163.5-23.75-73.12-148.15c-3.1-6.28-9.5-10.26-16.51-10.26s-13.41,3.98-16.51,10.26l-73.12,148.15-163.49,23.75c-6.93,1-12.7,5.86-14.86,12.53s-.36,13.98,4.66,18.88l118.3,115.32-27.93,162.83c-1.18,6.91,1.66,13.89,7.33,18.01s13.18,4.66,19.39,1.4l146.22-76.87,146.22,76.87c2.7,1.41,5.64,2.11,8.57,2.11,3.81,0,7.62-1.19,10.82-3.52,5.68-4.12,8.51-11.1,7.33-18.01l-11.62-67.67"/>
  <path class="st8" d="M2671.13,3217.19l-16.32-95.15,118.3-115.32c5.02-4.89,6.83-12.22,4.66-18.88-2.16-6.66-7.93-11.52-14.86-12.53l-163.5-23.75-73.12-148.15c-3.1-6.28-9.5-10.26-16.51-10.26s-13.41,3.98-16.51,10.26l-73.12,148.15-163.49,23.75c-6.93,1-12.7,5.86-14.86,12.53-2.16,6.66-.36,13.98,4.66,18.88l118.3,115.32-27.93,162.83c-1.18,6.91,1.66,13.89,7.33,18.01,5.67,4.12,13.18,4.66,19.39,1.4l146.22-76.87,146.22,76.87c2.7,1.41,5.64,2.11,8.57,2.11,3.81,0,7.62-1.19,10.82-3.52,5.68-4.12,8.51-11.1,7.33-18.01l-11.62-67.67"/>
  <path class="st8" d="M3161.34,2699.04l-16.32-95.15,118.3-115.32c5.02-4.89,6.83-12.22,4.66-18.88-2.16-6.66-7.93-11.52-14.86-12.53l-163.5-23.75-73.12-148.15c-3.1-6.28-9.5-10.26-16.51-10.26s-13.41,3.98-16.51,10.26l-73.12,148.15-163.49,23.75c-6.93,1-12.7,5.86-14.86,12.53s-.36,13.98,4.66,18.88l118.3,115.32-27.93,162.83c-1.18,6.91,1.66,13.89,7.33,18.01,5.67,4.12,13.18,4.66,19.39,1.4l146.22-76.87,146.22,76.87c2.7,1.41,5.64,2.11,8.57,2.11,3.81,0,7.62-1.19,10.82-3.52,5.68-4.12,8.51-11.1,7.33-18.01l-11.62-67.67"/>
  <path class="st8" d="M3430.23,1968.88l-16.32-95.15,118.3-115.32c5.02-4.89,6.83-12.22,4.66-18.88-2.16-6.66-7.93-11.52-14.86-12.53l-163.5-23.75-73.12-148.15c-3.1-6.28-9.5-10.26-16.51-10.26s-13.41,3.98-16.51,10.26l-73.12,148.15-163.49,23.75c-6.93,1-12.7,5.86-14.86,12.53-2.16,6.66-.36,13.98,4.66,18.88l118.3,115.32-27.93,162.83c-1.18,6.91,1.66,13.89,7.33,18.01,5.67,4.12,13.18,4.66,19.39,1.4l146.22-76.87,146.22,76.87c2.7,1.41,5.64,2.11,8.57,2.11,3.81,0,7.62-1.19,10.82-3.52,5.68-4.12,8.51-11.1,7.33-18.01l-11.62-67.67"/>
  <path class="st8" d="M3161.34,1267.76l-16.32-95.15,118.3-115.32c5.02-4.89,6.83-12.22,4.66-18.88-2.16-6.66-7.93-11.52-14.86-12.53l-163.5-23.75-73.12-148.15c-3.1-6.28-9.5-10.26-16.51-10.26s-13.41,3.98-16.51,10.26l-73.12,148.15-163.49,23.75c-6.93,1-12.7,5.86-14.86,12.53s-.36,13.98,4.66,18.88l118.3,115.32-27.93,162.83c-1.18,6.91,1.66,13.89,7.33,18.01,5.67,4.12,13.18,4.66,19.39,1.4l146.22-76.87,146.22,76.87c2.7,1.41,5.64,2.11,8.57,2.11,3.81,0,7.62-1.19,10.82-3.52,5.68-4.12,8.51-11.1,7.33-18.01l-11.62-67.67"/>
  <path class="st8" d="M2671.13,712.67l-16.32-95.15,118.3-115.32c5.02-4.89,6.83-12.22,4.66-18.88-2.16-6.66-7.93-11.52-14.86-12.53l-163.5-23.75-73.12-148.15c-3.1-6.28-9.5-10.26-16.51-10.26s-13.41,3.98-16.51,10.26l-73.12,148.15-163.49,23.75c-6.93,1-12.7,5.86-14.86,12.53-2.16,6.66-.36,13.98,4.66,18.88l118.3,115.32-27.93,162.83c-1.18,6.91,1.66,13.89,7.33,18.01,5.67,4.12,13.18,4.66,19.39,1.4l146.22-76.87,146.22,76.87c2.7,1.41,5.64,2.11,8.57,2.11,3.81,0,7.62-1.19,10.82-3.52,5.68-4.12,8.51-11.1,7.33-18.01l-11.62-67.67"/>
  <path class="st8" d="M761.34,1267.76l-16.32-95.15,118.3-115.32c5.02-4.89,6.83-12.22,4.66-18.88s-7.93-11.52-14.86-12.53l-163.5-23.75-73.12-148.15c-3.1-6.28-9.5-10.26-16.51-10.26s-13.41,3.98-16.51,10.26l-73.12,148.15-163.49,23.75c-6.93,1-12.7,5.86-14.86,12.53s-.36,13.98,4.66,18.88l118.3,115.32-27.93,162.83c-1.18,6.91,1.66,13.89,7.33,18.01,5.67,4.12,13.18,4.66,19.39,1.4l146.22-76.87,146.22,76.87c2.7,1.41,5.64,2.11,8.57,2.11,3.81,0,7.62-1.19,10.82-3.52,5.68-4.12,8.51-11.1,7.33-18.01l-11.62-67.67"/>
</svg>