<?xml version="1.0" encoding="UTF-8"?>
<svg id="Warstwa_1" data-name="Warstwa 1" xmlns="http://www.w3.org/2000/svg" viewBox="0 0 3512 3512">
  <defs>
    <style>
      .cls-1 {
        fill: #fac273;
      }

      .cls-1, .cls-2, .cls-3, .cls-4, .cls-5, .cls-6, .cls-7, .cls-8, .cls-9, .cls-10 {
        stroke-width: 0px;
      }

      .cls-2 {
        fill: #02ad94;
      }

      .cls-3 {
        fill: #ffd861;
      }

      .cls-4 {
        fill: #009640;
        opacity: .2;
      }

      .cls-5 {
        fill: #e5213d;
      }

      .cls-6 {
        fill: #c8ac91;
      }

      .cls-7 {
        fill: #e84165;
      }

      .cls-8 {
        fill: #decbbd;
      }

      .cls-9 {
        fill: #028778;
      }

      .cls-10 {
        fill: #f3981a;
      }
    </style>
  </defs>
  <circle class="cls-4" cx="1756" cy="1756" r="1756"/>
  <path class="cls-2" d="M2111.19,1740.96v816.05c0,72.73-59.17,131.9-131.9,131.9h-446.58c-72.73,0-131.9-59.17-131.9-131.9v-816.05c0-105.86,39.6-206.95,111.49-284.67l98.58-106.62v-526.58h290.31v526.73l98.51,106.46c71.89,77.72,111.49,178.81,111.49,284.67Z"/>
  <path class="cls-9" d="M2111.19,1740.96v816.05c0,72.73-59.17,131.9-131.9,131.9h-223.29V823.09h145.19v526.73l98.51,106.46c71.89,77.72,111.49,178.81,111.49,284.67Z"/>
  <rect class="cls-1" x="1400.81" y="1785.74" width="442.77" height="631.93"/>
  <rect class="cls-10" x="1756" y="1785.74" width="87.57" height="631.93"/>
  <rect class="cls-8" x="1400.81" y="1785.74" width="442.77" height="171.08"/>
  <rect class="cls-6" x="1756" y="1785.74" width="87.57" height="171.08"/>
  <rect class="cls-7" x="1584.65" y="823.09" width="342.7" height="114.23"/>
  <rect class="cls-5" x="1756" y="823.09" width="171.35" height="114.23"/>
  <path class="cls-3" d="M1913.39,440.01l-15.92-92.82,115.41-112.5c4.9-4.77,6.66-11.92,4.55-18.42-2.11-6.5-7.74-11.24-14.5-12.22l-159.5-23.17-71.33-144.53c-3.02-6.13-9.27-10.01-16.11-10.01s-13.08,3.88-16.11,10.01l-71.33,144.53-159.49,23.17c-6.76.98-12.39,5.72-14.5,12.22-2.11,6.5-.35,13.64,4.55,18.42l115.41,112.5-27.25,158.85c-1.15,6.74,1.62,13.55,7.15,17.57,5.53,4.02,12.86,4.55,18.92,1.37l142.65-74.99,142.65,74.99c2.63,1.38,5.5,2.06,8.36,2.06,3.72,0,7.43-1.16,10.56-3.43,5.54-4.02,8.3-10.83,7.15-17.57l-11.34-66.02"/>
  <path class="cls-3" d="M1077.79,690.36l-15.92-92.82,115.41-112.5c4.9-4.77,6.66-11.92,4.55-18.42-2.11-6.5-7.74-11.24-14.5-12.22l-159.5-23.17-71.33-144.53c-3.02-6.13-9.27-10.01-16.11-10.01s-13.08,3.88-16.11,10.01l-71.33,144.53-159.49,23.17c-6.76.98-12.39,5.72-14.5,12.22-2.11,6.5-.35,13.64,4.55,18.42l115.41,112.5-27.25,158.85c-1.15,6.74,1.62,13.55,7.15,17.57,5.53,4.02,12.86,4.55,18.92,1.37l142.65-74.99,142.65,74.99c2.63,1.38,5.5,2.06,8.36,2.06,3.72,0,7.43-1.16,10.56-3.43,5.54-4.02,8.3-10.83,7.15-17.57l-11.34-66.02"/>
  <path class="cls-3" d="M1913.39,3364.01l-15.92-92.82,115.41-112.5c4.9-4.77,6.66-11.92,4.55-18.42-2.11-6.5-7.74-11.24-14.5-12.22l-159.5-23.17-71.33-144.53c-3.02-6.13-9.27-10.01-16.11-10.01s-13.08,3.88-16.11,10.01l-71.33,144.53-159.49,23.17c-6.76.98-12.39,5.72-14.5,12.22-2.11,6.5-.35,13.64,4.55,18.42l115.41,112.5-27.25,158.85c-1.15,6.74,1.62,13.55,7.15,17.57,5.53,4.02,12.86,4.55,18.92,1.37l142.65-74.99,142.65,74.99c2.63,1.38,5.5,2.06,8.36,2.06,3.72,0,7.43-1.16,10.56-3.43,5.54-4.02,8.3-10.83,7.15-17.57l-11.34-66.02"/>
  <path class="cls-3" d="M441.18,1949.06l-15.92-92.82,115.41-112.5c4.9-4.77,6.66-11.92,4.55-18.42-2.11-6.5-7.74-11.24-14.5-12.22l-159.5-23.17-71.33-144.53c-3.02-6.13-9.27-10.01-16.11-10.01s-13.08,3.88-16.11,10.01l-71.33,144.53-159.49,23.17c-6.76.98-12.39,5.72-14.5,12.22-2.11,6.5-.35,13.64,4.55,18.42l115.41,112.5-27.25,158.85c-1.15,6.74,1.62,13.55,7.15,17.57,5.53,4.02,12.86,4.55,18.92,1.37l142.65-74.99,142.65,74.99c2.63,1.38,5.5,2.06,8.36,2.06,3.72,0,7.43-1.16,10.56-3.43,5.54-4.02,8.3-10.83,7.15-17.57l-11.34-66.02"/>
  <path class="cls-3" d="M646.16,2633.06l-15.92-92.82,115.41-112.5c4.9-4.77,6.66-11.92,4.55-18.42-2.11-6.5-7.74-11.24-14.5-12.22l-159.5-23.17-71.33-144.53c-3.02-6.13-9.27-10.01-16.11-10.01s-13.08,3.88-16.11,10.01l-71.33,144.53-159.49,23.17c-6.76.98-12.39,5.72-14.5,12.22-2.11,6.5-.35,13.64,4.55,18.42l115.41,112.5-27.25,158.85c-1.15,6.74,1.62,13.55,7.15,17.57,5.53,4.02,12.86,4.55,18.92,1.37l142.65-74.99,142.65,74.99c2.63,1.38,5.5,2.06,8.36,2.06,3.72,0,7.43-1.16,10.56-3.43,5.54-4.02,8.3-10.83,7.15-17.57l-11.34-66.02"/>
  <path class="cls-3" d="M1077.79,3081.76l-15.92-92.82,115.41-112.5c4.9-4.77,6.66-11.92,4.55-18.42-2.11-6.5-7.74-11.24-14.5-12.22l-159.5-23.17-71.33-144.53c-3.02-6.13-9.27-10.01-16.11-10.01s-13.08,3.88-16.11,10.01l-71.33,144.53-159.49,23.17c-6.76.98-12.39,5.72-14.5,12.22-2.11,6.5-.35,13.64,4.55,18.42l115.41,112.5-27.25,158.85c-1.15,6.74,1.62,13.55,7.15,17.57,5.53,4.02,12.86,4.55,18.92,1.37l142.65-74.99,142.65,74.99c2.63,1.38,5.5,2.06,8.36,2.06,3.72,0,7.43-1.16,10.56-3.43,5.54-4.02,8.3-10.83,7.15-17.57l-11.34-66.02"/>
  <path class="cls-3" d="M2662.16,3133.66l-15.92-92.82,115.41-112.5c4.9-4.77,6.66-11.92,4.55-18.42-2.11-6.5-7.74-11.24-14.5-12.22l-159.5-23.17-71.33-144.53c-3.02-6.13-9.27-10.01-16.11-10.01s-13.08,3.88-16.11,10.01l-71.33,144.53-159.49,23.17c-6.76.98-12.39,5.72-14.5,12.22-2.11,6.5-.35,13.64,4.55,18.42l115.41,112.5-27.25,158.85c-1.15,6.74,1.62,13.55,7.15,17.57,5.53,4.02,12.86,4.55,18.92,1.37l142.65-74.99,142.65,74.99c2.63,1.38,5.5,2.06,8.36,2.06,3.72,0,7.43-1.16,10.56-3.43,5.54-4.02,8.3-10.83,7.15-17.57l-11.34-66.02"/>
  <path class="cls-3" d="M3186.78,2633.06l-15.92-92.82,115.41-112.5c4.9-4.77,6.66-11.92,4.55-18.42-2.11-6.5-7.74-11.24-14.5-12.22l-159.5-23.17-71.33-144.53c-3.02-6.13-9.27-10.01-16.11-10.01s-13.08,3.88-16.11,10.01l-71.33,144.53-159.49,23.17c-6.76.98-12.39,5.72-14.5,12.22-2.11,6.5-.35,13.64,4.55,18.42l115.41,112.5-27.25,158.85c-1.15,6.74,1.62,13.55,7.15,17.57,5.53,4.02,12.86,4.55,18.92,1.37l142.65-74.99,142.65,74.99c2.63,1.38,5.5,2.06,8.36,2.06,3.72,0,7.43-1.16,10.56-3.43,5.54-4.02,8.3-10.83,7.15-17.57l-11.34-66.02"/>
  <path class="cls-3" d="M3378.78,1949.06l-15.92-92.82,115.41-112.5c4.9-4.77,6.66-11.92,4.55-18.42-2.11-6.5-7.74-11.24-14.5-12.22l-159.5-23.17-71.33-144.53c-3.02-6.13-9.27-10.01-16.11-10.01s-13.08,3.88-16.11,10.01l-71.33,144.53-159.49,23.17c-6.76.98-12.39,5.72-14.5,12.22-2.11,6.5-.35,13.64,4.55,18.42l115.41,112.5-27.25,158.85c-1.15,6.74,1.62,13.55,7.15,17.57,5.53,4.02,12.86,4.55,18.92,1.37l142.65-74.99,142.65,74.99c2.63,1.38,5.5,2.06,8.36,2.06,3.72,0,7.43-1.16,10.56-3.43,5.54-4.02,8.3-10.83,7.15-17.57l-11.34-66.02"/>
  <path class="cls-3" d="M3186.78,1236.77l-15.92-92.82,115.41-112.5c4.9-4.77,6.66-11.92,4.55-18.42-2.11-6.5-7.74-11.24-14.5-12.22l-159.5-23.17-71.33-144.53c-3.02-6.13-9.27-10.01-16.11-10.01s-13.08,3.88-16.11,10.01l-71.33,144.53-159.49,23.17c-6.76.98-12.39,5.72-14.5,12.22-2.11,6.5-.35,13.64,4.55,18.42l115.41,112.5-27.25,158.85c-1.15,6.74,1.62,13.55,7.15,17.57,5.53,4.02,12.86,4.55,18.92,1.37l142.65-74.99,142.65,74.99c2.63,1.38,5.5,2.06,8.36,2.06,3.72,0,7.43-1.16,10.56-3.43,5.54-4.02,8.3-10.83,7.15-17.57l-11.34-66.02"/>
  <path class="cls-3" d="M2662.16,690.36l-15.92-92.82,115.41-112.5c4.9-4.77,6.66-11.92,4.55-18.42-2.11-6.5-7.74-11.24-14.5-12.22l-159.5-23.17-71.33-144.53c-3.02-6.13-9.27-10.01-16.11-10.01s-13.08,3.88-16.11,10.01l-71.33,144.53-159.49,23.17c-6.76.98-12.39,5.72-14.5,12.22-2.11,6.5-.35,13.64,4.55,18.42l115.41,112.5-27.25,158.85c-1.15,6.74,1.62,13.55,7.15,17.57,5.53,4.02,12.86,4.55,18.92,1.37l142.65-74.99,142.65,74.99c2.63,1.38,5.5,2.06,8.36,2.06,3.72,0,7.43-1.16,10.56-3.43,5.54-4.02,8.3-10.83,7.15-17.57l-11.34-66.02"/>
  <path class="cls-3" d="M646.16,1236.77l-15.92-92.82,115.41-112.5c4.9-4.77,6.66-11.92,4.55-18.42-2.11-6.5-7.74-11.24-14.5-12.22l-159.5-23.17-71.33-144.53c-3.02-6.13-9.27-10.01-16.11-10.01s-13.08,3.88-16.11,10.01l-71.33,144.53-159.49,23.17c-6.76.98-12.39,5.72-14.5,12.22-2.11,6.5-.35,13.64,4.55,18.42l115.41,112.5-27.25,158.85c-1.15,6.74,1.62,13.55,7.15,17.57,5.53,4.02,12.86,4.55,18.92,1.37l142.65-74.99,142.65,74.99c2.63,1.38,5.5,2.06,8.36,2.06,3.72,0,7.43-1.16,10.56-3.43,5.54-4.02,8.3-10.83,7.15-17.57l-11.34-66.02"/>
</svg>